<svg height="512pt" viewBox="0 0 512 512" width="512pt" xmlns="http://www.w3.org/2000/svg"><path d="m497 0h-482c-8.285156 0-15 6.714844-15 15s6.714844 15 15 15h185.835938v121.566406c0 8.285156 6.714843 15 15 15h80.328124c8.285157 0 15-6.714844 15-15v-121.566406h185.835938c8.285156 0 15-6.714844 15-15s-6.714844-15-15-15zm0 0" fill="#fef4f5"/><path d="m311.164062 151.566406v-121.566406h185.835938c8.285156 0 15-6.714844 15-15s-6.714844-15-15-15h-241v166.566406h40.164062c8.285157 0 15-6.714844 15-15zm0 0" fill="#d5eded"/><path d="m360.433594 136.566406h-208.867188c-8.285156 0-15 6.714844-15 15v64.269532c0 8.28125 6.714844 15 15 15h208.867188c8.285156 0 15-6.71875 15-15v-64.269532c0-8.285156-6.714844-15-15-15zm0 0" fill="#c5e1e6"/><path d="m360.433594 136.566406h-104.433594v94.269532h104.433594c8.285156 0 15-6.71875 15-15v-64.269532c0-8.285156-6.714844-15-15-15zm0 0" fill="#8db9c4"/><path d="m456.835938 200.835938h-401.671876c-30.417968 0-55.164062 24.746093-55.164062 55.164062v200.835938c0 30.417968 24.746094 55.164062 55.164062 55.164062h401.671876c30.417968 0 55.164062-24.746094 55.164062-55.164062v-200.835938c0-30.417969-24.746094-55.164062-55.164062-55.164062zm0 0" fill="#fef4f5"/><path d="m456.835938 200.835938h-200.835938v311.164062h200.835938c30.417968 0 55.164062-24.746094 55.164062-55.164062v-200.835938c0-30.417969-24.746094-55.164062-55.164062-55.164062zm0 0" fill="#d5eded"/><g fill="#293939"><path d="m416.664062 307.148438h-104.433593c-8.28125 0-15-6.714844-15-15 0-8.28125 6.71875-15 15-15h104.433593c8.285157 0 15 6.71875 15 15 0 8.285156-6.714843 15-15 15zm0 0"/><path d="m416.664062 371.417969h-104.433593c-8.28125 0-15-6.71875-15-15 0-8.285157 6.71875-15 15-15h104.433593c8.285157 0 15 6.714843 15 15 0 8.28125-6.714843 15-15 15zm0 0"/><path d="m416.664062 435.683594h-104.433593c-8.28125 0-15-6.714844-15-15s6.71875-15 15-15h104.433593c8.285157 0 15 6.714844 15 15s-6.714843 15-15 15zm0 0"/></g><path d="m155.585938 265.101562c-50.355469 0-91.316407 40.964844-91.316407 91.316407 0 50.351562 40.964844 91.316406 91.316407 91.316406 50.347656 0 91.3125-40.964844 91.3125-91.316406 0-50.351563-40.964844-91.316407-91.3125-91.316407zm0 0" fill="#a8ebfa"/></svg>